<svg width="56" height="56" viewBox="0 0 56 56" fill="none" xmlns="http://www.w3.org/2000/svg">
<path d="M28 56C43.464 56 56 43.464 56 28C56 12.536 43.464 0 28 0C12.536 0 0 12.536 0 28C0 43.464 12.536 56 28 56Z" fill="url(#paint0_linear_28_20949)"/>
<path d="M11.6531 27.7571L30.5086 19.9883C32.3698 19.1791 38.682 16.5895 38.682 16.5895C38.682 16.5895 41.5953 15.4565 41.3525 18.208C41.2716 19.3409 40.6242 23.3062 39.9768 27.5952L37.9536 40.3004C37.9536 40.3004 37.7918 42.1617 36.4161 42.4854C35.0403 42.8091 32.7744 41.3525 32.3698 41.0288C32.0461 40.786 26.3005 37.1444 24.1964 35.364C23.6299 34.8785 22.9825 33.9074 24.2773 32.7744C27.1906 30.1039 30.6704 26.786 32.7744 24.682C33.7455 23.7109 34.7166 21.445 30.6704 24.1964L19.26 31.8843C19.26 31.8843 17.9652 32.6935 15.5375 31.9652C13.1097 31.2369 10.2773 30.2658 10.2773 30.2658C10.2773 30.2658 8.33514 29.0519 11.6531 27.7571Z" fill="white"/>
<defs>
<linearGradient id="paint0_linear_28_20949" x1="37.3355" y1="9.33549" x2="23.3355" y2="42" gradientUnits="userSpaceOnUse">
<stop stop-color="#37AEE2"/>
<stop offset="1" stop-color="#1E96C8"/>
</linearGradient>
</defs>
</svg>
