<svg width="56" height="56" viewBox="0 0 56 56" fill="none" xmlns="http://www.w3.org/2000/svg">
<path d="M0 28C0 12.536 12.536 0 28 0C43.464 0 56 12.536 56 28C56 43.464 43.464 56 28 56C12.536 56 0 43.464 0 28Z" fill="#0077FF"/>
<g clip-path="url(#clip0_28_20765)">
<mask id="mask0_28_20765" style="mask-type:luminance" maskUnits="userSpaceOnUse" x="16" y="16" width="24" height="24">
<path d="M39.8796 16H16.1172V40H39.8796V16Z" fill="white"/>
</mask>
<g mask="url(#mask0_28_20765)">
<path d="M16.1172 27.52C16.1172 22.0894 16.1172 19.3741 17.7875 17.6871C19.4579 16 22.1463 16 27.5231 16H28.4736C33.8504 16 36.5388 16 38.2092 17.6871C39.8796 19.3741 39.8796 22.0894 39.8796 27.52V28.48C39.8796 33.9106 39.8796 36.6259 38.2092 38.3129C36.5388 40 33.8504 40 28.4736 40H27.5231C22.1463 40 19.4579 40 17.7875 38.3129C16.1172 36.6259 16.1172 33.9106 16.1172 28.48V27.52Z" fill="white"/>
<path d="M28.7626 33.2908C23.3467 33.2908 20.2576 29.5408 20.1289 23.3008H22.8418C22.9309 27.8808 24.9309 29.8208 26.515 30.2208V23.3008H29.0695V27.2507C30.6339 27.0808 32.2773 25.2808 32.8317 23.3008H35.3863C34.9605 25.7408 33.1783 27.5408 31.911 28.2808C33.1783 28.8808 35.2081 30.4508 35.9804 33.2908H33.1684C32.5645 31.3908 31.0596 29.9208 29.0695 29.7208V33.2908H28.7626Z" fill="#0077FF"/>
</g>
</g>
<defs>
<clipPath id="clip0_28_20765">
<rect width="24" height="24" fill="white" transform="translate(16 16)"/>
</clipPath>
</defs>
</svg>
