<svg width="33" height="32" viewBox="0 0 33 32" fill="none" xmlns="http://www.w3.org/2000/svg">
<path d="M11.4167 10.6666H9.01667C7.52333 10.6666 6.77667 10.6666 6.206 10.9573C5.70426 11.2129 5.29633 11.6208 5.04067 12.1226C4.75 12.6933 4.75 13.4399 4.75 14.9333V22.3999C4.75 23.8932 4.75 24.6399 5.04067 25.2106C5.29633 25.7123 5.70426 26.1203 6.206 26.3759C6.77533 26.6666 7.522 26.6666 9.01267 26.6666H24.4873C25.978 26.6666 26.7233 26.6666 27.2927 26.3759C27.7953 26.1199 28.2033 25.7119 28.4593 25.2106C28.75 24.6399 28.75 23.8959 28.75 22.4053V14.9293C28.75 13.4386 28.75 12.6919 28.4593 12.1226C28.2033 11.6206 27.7949 11.2127 27.2927 10.9573C26.7233 10.6666 25.9767 10.6666 24.4833 10.6666H22.0833M11.4167 10.6666H22.0833M11.4167 10.6666C11.4167 9.2521 11.9786 7.89554 12.9788 6.89535C13.979 5.89515 15.3355 5.33325 16.75 5.33325C18.1645 5.33325 19.521 5.89515 20.5212 6.89535C21.5214 7.89554 22.0833 9.2521 22.0833 10.6666" stroke="#5E5BE6" stroke-width="2" stroke-linecap="round" stroke-linejoin="round"/>
</svg>
