<svg width="24" height="25" viewBox="0 0 24 25" fill="none" xmlns="http://www.w3.org/2000/svg">
<path d="M4.53613 11.9649L11.4301 5.06994C11.9167 4.57789 12.4956 4.18688 13.1338 3.91938C13.772 3.65188 14.4567 3.51318 15.1487 3.51125C15.8407 3.50932 16.5262 3.6442 17.1658 3.90813C17.8055 4.17207 18.3866 4.55984 18.8759 5.04917C19.3652 5.5385 19.7529 6.11971 20.0167 6.7594C20.2806 7.39909 20.4153 8.08462 20.4133 8.77658C20.4113 9.46854 20.2725 10.1533 20.0049 10.7914C19.7373 11.4295 19.3462 12.0085 18.8541 12.4949L10.9001 20.4499C10.2437 21.1064 9.35344 21.4751 8.42513 21.4751C7.49683 21.4751 6.60654 21.1064 5.95013 20.4499C5.29372 19.7935 4.92495 18.9032 4.92495 17.9749C4.92495 17.0466 5.29372 16.1563 5.95013 15.4999L13.9061 7.54594C14.2371 7.23213 14.6775 7.05991 15.1335 7.06597C15.5895 7.07203 16.0252 7.25589 16.3477 7.57838C16.6702 7.90088 16.854 8.33653 16.8601 8.79257C16.8662 9.2486 16.6939 9.68899 16.3801 10.0199L9.48513 16.9139" stroke="#5E5BE6" stroke-width="2" stroke-linecap="round" stroke-linejoin="round"/>
</svg>
