<svg width="33" height="32" viewBox="0 0 33 32" fill="none" xmlns="http://www.w3.org/2000/svg">
<path d="M4.25 14.6667V21.0667C4.25 22.5601 4.25 23.3067 4.54067 23.8774C4.79633 24.3792 5.20426 24.7871 5.706 25.0427C6.27533 25.3334 7.022 25.3334 8.51267 25.3334H23.9873C25.478 25.3334 26.2233 25.3334 26.7927 25.0427C27.2953 24.7867 27.7033 24.3787 27.9593 23.8774C28.25 23.3067 28.25 22.5627 28.25 21.0721V14.6667M4.25 14.6667V12.0001M4.25 14.6667H28.25M28.25 14.6667V12.0001M4.25 12.0001V10.9334C4.25 9.44008 4.25 8.69341 4.54067 8.12275C4.79667 7.62008 5.20333 7.21341 5.706 6.95741C6.27667 6.66675 7.02333 6.66675 8.51667 6.66675H23.9833C25.4767 6.66675 26.2233 6.66675 26.7927 6.95741C27.2953 7.21341 27.7033 7.62008 27.9593 8.12275C28.25 8.69208 28.25 9.43875 28.25 10.9294V12.0001M4.25 12.0001H28.25M9.58333 20.0001H14.9167" stroke="#BDBDBD" stroke-width="2" stroke-linecap="round" stroke-linejoin="round"/>
</svg>
