<svg width="33" height="32" viewBox="0 0 33 32" fill="none" xmlns="http://www.w3.org/2000/svg">
<path d="M27.3834 11.8972L26.8954 11.6252L26.7448 11.5399C26.3813 11.3217 26.075 11.0201 25.8514 10.6599C25.8274 10.6239 25.8061 10.5852 25.7634 10.5106C25.476 10.0491 25.3364 9.51088 25.3634 8.9679L25.3714 8.40124C25.3874 7.49457 25.3954 7.03857 25.2674 6.63057C25.1542 6.26756 24.9646 5.93296 24.7114 5.64924C24.4261 5.32924 24.0301 5.0999 23.2368 4.6439L22.5781 4.2639C21.7888 3.80924 21.3928 3.58124 20.9728 3.49457C20.6017 3.41778 20.2185 3.42097 19.8488 3.5039C19.4314 3.59724 19.0408 3.8319 18.2608 4.29857L18.2568 4.30124L17.7848 4.58257C17.7101 4.6279 17.6714 4.64924 17.6341 4.67057C17.2634 4.87724 16.8501 4.99057 16.4248 5.0039C16.3821 5.00657 16.3381 5.00657 16.2514 5.00657L16.0781 5.00524C15.6526 4.99168 15.2366 4.87647 14.8648 4.66924C14.8274 4.64924 14.7914 4.62657 14.7168 4.58124L14.2408 4.2959C13.4554 3.8239 13.0621 3.58924 12.6421 3.49457C12.271 3.4115 11.8864 3.40877 11.5141 3.48657C11.0928 3.57457 10.6981 3.8039 9.90744 4.26257L9.90344 4.2639L9.25277 4.64124L9.24611 4.64657C8.46211 5.0999 8.06877 5.32924 7.78611 5.6479C7.53421 5.9311 7.34557 6.26473 7.23277 6.62657C7.10611 7.0359 7.11277 7.4919 7.12877 8.4039L7.13811 8.96924C7.13811 9.0559 7.14211 9.09857 7.14077 9.1399C7.13387 9.62433 6.99512 10.0977 6.73944 10.5092C6.69544 10.5839 6.67544 10.6212 6.65277 10.6559C6.42796 11.0188 6.11931 11.3224 5.75277 11.5412L5.60344 11.6252L5.12211 11.8919C4.31944 12.3359 3.91811 12.5586 3.62744 12.8759C3.36901 13.1557 3.17352 13.4876 3.05411 13.8492C2.92077 14.2586 2.92077 14.7159 2.92211 15.6332L2.92477 16.3839C2.92611 17.2946 2.92877 17.7492 3.06344 18.1559C3.18235 18.5153 3.37643 18.8453 3.63277 19.1239C3.92344 19.4386 4.32077 19.6599 5.11677 20.1026L5.59411 20.3679C5.67544 20.4132 5.71677 20.4346 5.75544 20.4586C6.17327 20.709 6.51451 21.0692 6.74211 21.4999L6.83144 21.6599C7.05666 22.0851 7.16262 22.5634 7.13811 23.0439L7.12877 23.5866C7.11277 24.5012 7.10611 24.9599 7.23411 25.3692C7.34744 25.7319 7.53677 26.0666 7.79011 26.3506C8.07544 26.6706 8.47277 26.8986 9.26477 27.3559L9.92344 27.7359C10.7141 28.1906 11.1088 28.4186 11.5288 28.5052C11.8998 28.582 12.283 28.5788 12.6528 28.4959C13.0714 28.4026 13.4621 28.1679 14.2448 27.6986L14.7168 27.4159L14.8674 27.3279C15.2381 27.1226 15.6514 27.0079 16.0768 26.9946L16.2501 26.9932H16.4234C16.8474 27.0066 17.2634 27.1226 17.6368 27.3292L17.7594 27.4026L18.2608 27.7039C19.0474 28.1759 19.4394 28.4106 19.8594 28.5039C20.2304 28.5879 20.615 28.5915 20.9874 28.5146C21.4074 28.4266 21.8048 28.1959 22.5954 27.7372L23.2554 27.3546C24.0394 26.8986 24.4328 26.6706 24.7154 26.3519C24.9688 26.0679 25.1554 25.7346 25.2688 25.3732C25.3954 24.9666 25.3888 24.5146 25.3728 23.6159L25.3621 23.0292V22.8599C25.3684 22.3752 25.5067 21.9013 25.7621 21.4892L25.8488 21.3426C26.0736 20.9797 26.3822 20.6761 26.7488 20.4572L26.8954 20.3759L26.8981 20.3746L27.3794 20.1079C28.1821 19.6626 28.5834 19.4412 28.8754 19.1239C29.1341 18.8439 29.3288 18.5106 29.4474 18.1506C29.5808 17.7439 29.5808 17.2879 29.5781 16.3812L29.5754 15.6159C29.5741 14.7052 29.5728 14.2492 29.4381 13.8426C29.3186 13.4835 29.1241 13.154 28.8674 12.8759C28.5781 12.5612 28.1808 12.3399 27.3861 11.8986L27.3834 11.8972Z" stroke="#666666" stroke-width="2" stroke-linecap="round" stroke-linejoin="round"/>
<path d="M10.917 15.9998C10.917 17.4143 11.4789 18.7709 12.4791 19.7711C13.4793 20.7713 14.8358 21.3332 16.2503 21.3332C17.6648 21.3332 19.0214 20.7713 20.0216 19.7711C21.0218 18.7709 21.5837 17.4143 21.5837 15.9998C21.5837 14.5853 21.0218 13.2288 20.0216 12.2286C19.0214 11.2284 17.6648 10.6665 16.2503 10.6665C14.8358 10.6665 13.4793 11.2284 12.4791 12.2286C11.4789 13.2288 10.917 14.5853 10.917 15.9998Z" stroke="#666666" stroke-width="2" stroke-linecap="round" stroke-linejoin="round"/>
</svg>
