<svg width="33" height="32" viewBox="0 0 33 32" fill="none" xmlns="http://www.w3.org/2000/svg">
<path d="M8.75 24H16.75M8.75 24C7.43267 24 6.74067 23.9827 6.206 23.7093C5.70405 23.4533 5.2961 23.0449 5.04067 22.5427C4.75 21.9733 4.75 21.2267 4.75 19.7333V12.2667C4.75 10.7733 4.75 10.0267 5.04067 9.456C5.29667 8.95333 5.70333 8.54667 6.206 8.29067C6.77667 8 7.52333 8 9.01667 8H24.4833C25.9767 8 26.7233 8 27.2927 8.29067C27.7953 8.54667 28.2033 8.95333 28.4593 9.456C28.75 10.0253 28.75 10.772 28.75 12.2627V19.7373C28.75 21.228 28.75 21.9733 28.4593 22.5427C28.2036 23.0451 27.7951 23.4536 27.2927 23.7093C26.7233 24 25.978 24 24.4873 24H16.75M8.75 24C8.75 22.5267 10.5407 21.3333 12.75 21.3333C14.9593 21.3333 16.75 22.5267 16.75 24M24.75 18.6667H19.4167M24.75 14.6667H20.75M12.75 17.3333C12.0428 17.3333 11.3645 17.0524 10.8644 16.5523C10.3643 16.0522 10.0833 15.3739 10.0833 14.6667C10.0833 13.9594 10.3643 13.2811 10.8644 12.781C11.3645 12.281 12.0428 12 12.75 12C13.4572 12 14.1355 12.281 14.6356 12.781C15.1357 13.2811 15.4167 13.9594 15.4167 14.6667C15.4167 15.3739 15.1357 16.0522 14.6356 16.5523C14.1355 17.0524 13.4572 17.3333 12.75 17.3333Z" stroke="#BDBDBD" stroke-width="2" stroke-linecap="round" stroke-linejoin="round"/>
</svg>
